<svg xmlns="http://www.w3.org/2000/svg" width="240" height="87" viewBox="0 0 240 87" fill="none">
    <rect width="240" height="87" rx="8" fill="#F3F4F6" />
    <path d="M30 25H45C51.0751 25 56 29.9249 56 36C56 42.0751 51.0751 47 45 47H35V62H30V25Z" fill="#2563EB" />
    <path d="M35 30V42H45C48.3137 42 51 39.3137 51 36C51 32.6863 48.3137 30 45 30H35Z" fill="#F3F4F6" />
    <path
        d="M62 25H67V57C67 59.7614 69.2386 62 72 62H77V25H82V62C82 64.7614 84.2386 67 87 67H92V25H97V67C97 69.7614 99.2386 72 102 72H107V25H112V72C112 74.7614 114.239 77 117 77H122V30H127V77C127 79.7614 129.239 82 132 82H142C148.075 82 153 77.0751 153 71C153 64.9249 148.075 60 142 60C148.075 60 153 55.0751 153 49C153 42.9249 148.075 38 142 38H132C129.239 38 127 40.2386 127 43V25H62Z"
        fill="#2563EB" />
    <path d="M142 43H132V55H142C145.314 55 148 52.3137 148 49C148 45.6863 145.314 43 142 43Z" fill="#F3F4F6" />
    <path d="M142 65H132V77H142C145.314 77 148 74.3137 148 71C148 67.6863 145.314 65 142 65Z" fill="#F3F4F6" />
    <path
        d="M158 25H163V57C163 59.7614 165.239 62 168 62H178C184.075 62 189 57.0751 189 51C189 44.9249 184.075 40 178 40H168C165.239 40 163 42.2386 163 45V25H158Z"
        fill="#2563EB" />
    <path d="M178 45H168V57H178C181.314 57 184 54.3137 184 51C184 47.6863 181.314 45 178 45Z" fill="#F3F4F6" />
    <path d="M195 25H215C221.075 25 226 29.9249 226 36C226 42.0751 221.075 47 215 47H200V62H195V25Z" fill="#2563EB" />
    <path d="M200 30V42H215C218.314 42 221 39.3137 221 36C221 32.6863 218.314 30 215 30H200Z" fill="#F3F4F6" />
</svg>